<svg width="178" height="61" fill="none" xmlns="http://www.w3.org/2000/svg"><path d="m28.896 26.591 1.8 1.799-6.26 6.31h8.823v2.536h-8.806l6.227 6.278-1.8 1.814-6.21-6.278-.033 8.895h-2.516l.032-8.927-6.243 6.294-1.8-1.798 6.228-6.278H9.53V34.7h8.807l-6.227-6.277 1.8-1.815 6.29 6.31V.324h-.51S5.741 8.368 3.814 9.572C1.903 10.777.836 12.976.836 14.422v31.292c0 1.091.191 2.119.732 3.066a6.177 6.177 0 0 0 2.246 2.248l14.54 8.477c.94.546 1.958.82 3.041.82a5.966 5.966 0 0 0 3.042-.82l14.54-8.477a5.793 5.793 0 0 0 2.229-2.248 6.09 6.09 0 0 0 .812-3.066V28.79a6.09 6.09 0 0 0-.812-3.067 5.793 5.793 0 0 0-2.23-2.247l-16.275-9.473v18.849l6.195-6.262Zm148.486-1.751h-12.835v3.645h4.347v20.422h4.141V28.485h4.347V24.84Zm-16.583 0h-7.055l-3.853 24.067h4.331l.749-5.603h4.602l.748 5.603h4.3l-3.822-24.067Zm-5.335 14.82 1.752-10.597h.128l1.751 10.596h-3.631Zm-16.126-14.82c-.956 0-1.768.321-2.421.98-.637.625-.987 1.428-1.019 2.375 0 0-.494 14.74-.605 15.863-.08.755-.366 1.06-.924 1.06h-.939v3.805h2.5c.971 0 1.768-.32 2.405-.98.637-.641 1.003-1.444 1.067-2.391l.621-17.003h3.615v20.374h4.076V24.84h-8.376Zm-5.819 0h-4.396l-2.516 11.977-3.01-11.977h-4.331s5.143 18.56 5.271 19.042c.175.642-.128 1.252-.717 1.252h-2.516v3.757h3.806c.908 0 1.609-.16 2.23-.819.573-.642.987-1.477 1.242-2.472l4.937-20.76Zm-16.207 10.5c-.653-.642-1.465-.979-2.421-.979h-5V28.47h7.15v-3.645h-11.307v24.068h9.157c.956 0 1.768-.322 2.421-.98.669-.658 1.019-1.46 1.019-2.392V37.7c0-.946-.35-1.733-1.019-2.36Zm-3.121 9.746h-4.3v-7.08h4.3v7.08ZM95.078 35.34c-.653-.642-1.481-.979-2.453-.979h-5V28.47h7.166v-3.645H83.484v24.068h9.125c.972 0 1.784-.322 2.453-.98.669-.658 1.019-1.46 1.019-2.392V37.7c0-.946-.334-1.733-1.003-2.36Zm-3.121 9.746h-4.332v-7.08h4.332v7.08ZM81.69 48.907l-5.495-12.94 5.128-11.127h-4.411l-4.857 10.436V24.84h-4.14v24.067h4.14V36.946l5.16 11.961h4.474ZM64.044 25.82c-.668-.643-1.496-.98-2.468-.98h-5.988c-.955 0-1.767.321-2.42.98a3.195 3.195 0 0 0-1.02 2.375v17.357c0 .93.335 1.734 1.02 2.392.653.642 1.465.98 2.42.98h5.988c.971 0 1.8-.322 2.468-.98a3.287 3.287 0 0 0 .988-2.392V28.179a3.19 3.19 0 0 0-.988-2.36Zm-3.153 19.314h-4.618v-16.65h4.618v16.65Zm112.574 8.464h-1.003v.433l-1.195 2.778v-3.211h-1.003v5.844h1.003v-.337l1.195-2.778v3.115h1.003v-5.844Zm4.14 5.844v-5.844h-1.003v.433l-1.147 2.778v-3.211h-1.003v5.844h1.003v-.337l1.147-2.778v3.115h1.003Zm-46.437-5.844h-2.803v5.844h2.803v-.867h-1.8v-1.766h1.434v-.867h-1.434v-1.445h1.8v-.9Zm4.124 0h-1.003v5.844h1.003v-.337l1.195-2.778v3.115h1.003v-5.844h-1.003v.433l-1.195 2.778v-3.211Zm4.459.915h1.052v4.929h1.003v-4.93h1.051v-.914h-3.09v.915h-.016Zm6.593-.915h-2.755v5.844h2.755v-.867h-1.751v-1.766h1.385v-.867h-1.385v-1.445h1.751v-.9Zm4.077 0h-1.099l-.621 1.573-.668-1.573h-1.052l1.195 2.922-1.195 2.922h1.099l.478-1.252v-.049l.143-.24.621 1.525h1.099l-1.194-2.922 1.194-2.906Zm3.775 0h-1.004v2.44h-1.099v-2.44h-1.051v5.844h1.051v-2.489h1.099v2.489h1.004v-5.844Zm12.867 0v5.844h.955v-4.93h1.704v-.914h-2.659Zm-8.918.819a.792.792 0 0 0-.239-.578.835.835 0 0 0-.621-.241h-1.433a.835.835 0 0 0-.621.24.789.789 0 0 0-.239.578v4.271c0 .225.079.402.239.53.159.16.366.241.621.241h1.433c.255 0 .462-.08.621-.24a.644.644 0 0 0 .239-.53v-4.272Zm-2.134.096h1.099v4.062h-1.099v-4.062Zm6.147-.915h-1.991c-.286 0-.493.08-.621.24a.792.792 0 0 0-.239.578l-.143 4.175h-.478v.867h.621c.223 0 .43-.064.622-.193a1.17 1.17 0 0 0 .238-.578l.144-4.174h.86v4.929h1.003v-5.844h-.016Zm3.281 0h-1.481c-.255 0-.446.08-.574.24a.792.792 0 0 0-.239.578v4.271c0 .225.08.402.239.53.128.16.319.241.574.241h1.481c.223 0 .43-.08.621-.24a.644.644 0 0 0 .239-.53v-4.272a.792.792 0 0 0-.239-.577.946.946 0 0 0-.621-.241Zm-.192.915v4.062h-1.098v-4.078h1.098v.016Zm-73.685-.915h-2.707v5.844h2.23a.78.78 0 0 0 .573-.24.644.644 0 0 0 .239-.53v-1.96a.644.644 0 0 0-.24-.53.78.78 0 0 0-.572-.24h-1.243v-1.445h1.704v-.9h.016Zm-1.72 4.977v-1.766h1.052v1.766h-1.052Zm5.049-4.977h-1.434a.836.836 0 0 0-.62.24.792.792 0 0 0-.24.578v4.271c0 .225.08.402.24.53.159.16.366.241.62.241h1.434c.254 0 .462-.08.62-.24a.643.643 0 0 0 .24-.53v-4.272a.791.791 0 0 0-.24-.577.861.861 0 0 0-.62-.241Zm-1.29.915h1.146v4.062h-1.146v-4.062Zm6.179 2.007v-2.104a.731.731 0 0 0-.287-.577.779.779 0 0 0-.573-.241h-2.182v5.844h.956v-2.103h1.242c.223 0 .414-.08.573-.241.175-.129.27-.321.27-.578Zm-2.103-2.007h1.052v1.959h-1.052v-1.96Zm3.568-.915h-1.051l1.114 4.03.207.706.383-2.007-.653-2.73Zm2.245 0h-1.099l-.955 4.977h-.765v.867h.813a.883.883 0 0 0 .573-.193c.159-.16.255-.369.287-.626l1.146-5.025Zm4.029 4.8h-.382v-4.8h-2.086a.777.777 0 0 0-.573.24.789.789 0 0 0-.239.578l-.191 3.982h-.383v1.67h.956v-.819h1.943v.82h.955v-1.67Zm-1.417 0h-1.051l.191-3.885h.86v3.885Zm4.316-4.8h-1.434a.837.837 0 0 0-.621.24.792.792 0 0 0-.239.578v4.271c0 .225.08.402.239.53a.84.84 0 0 0 .621.241h1.434a.84.84 0 0 0 .621-.24c.127-.13.191-.306.191-.53v-4.272a.903.903 0 0 0-.191-.577.839.839 0 0 0-.621-.241Zm-.144 4.977h-1.194v-4.078h1.194v4.078Zm4.093-4.977h-2.23v5.844h2.262c.223 0 .398-.08.525-.24a.789.789 0 0 0 .239-.579V57.13c0-.385-.191-.61-.573-.674v-.049c.382-.064.573-.289.573-.674v-1.349a.789.789 0 0 0-.239-.578c-.191-.128-.382-.208-.557-.208Zm-1.242.915h1.051v1.525h-1.051v-1.525Zm1.051 4.062h-1.051v-1.622h1.051v1.622Zm3.933-.466.096.723c.032.193.064.401.095.626h1.052l-.956-5.844h-1.704l-.685 5.844h.828l.191-1.349h1.083Zm-.461-3.5.143.626c.064.675.127 1.349.191 2.007h-.86l.287-2.585v-.048h.239Zm7.644-1.011h-1.004v5.844h1.004v-.337l1.146-2.778v3.115h1.003v-5.844h-1.003v.433l-1.146 2.778v-3.211Zm-2.134 0h-1.004v2.44h-1.099v-2.44h-1.003v5.844h1.003v-2.489h1.099v2.489h1.004v-5.844Zm-67.507 0h-1.99a.836.836 0 0 0-.621.24.792.792 0 0 0-.24.578l-.19 4.175h-.43v.867h.62a.885.885 0 0 0 .574-.193 1 1 0 0 0 .287-.578l.143-4.174h.86v4.929h1.003v-5.844h-.016Zm3.042 5.844h1.003l-.907-5.844h-1.72l-.908 5.844h1.003l.191-1.349h1.147l.191 1.349Zm-.669-4.833.335 2.633h-.86l.286-2.585v-.048h.24Zm4.475-1.011h-1.513a.634.634 0 0 0-.525.24c-.128.129-.191.306-.191.53v.915h.955v-.77h1.051v1.573H61.21v.867h1.051v1.622h-1.099v-.723h-1.003v.82c0 .224.08.4.239.53.16.16.35.24.573.24h1.481c.223 0 .414-.08.574-.24a.606.606 0 0 0 .286-.53v-1.526c0-.353-.207-.562-.62-.626v-.048c.35-.097.525-.29.525-.578v-1.526c0-.224-.064-.401-.191-.53-.16-.16-.335-.24-.526-.24Zm4.411 0h-2.755v5.844h2.755v-.867h-1.75v-1.766h1.385v-.867H65.16v-1.445h1.751v-.9Zm3.695 2.922v-2.104a.792.792 0 0 0-.239-.577.779.779 0 0 0-.573-.241h-2.278v5.844h1.052v-2.103h1.242c.223 0 .414-.08.573-.241.143-.129.223-.321.223-.578Zm-.987-.048h-1.051v-1.96h1.05v1.96Zm4.793-2.874h-.956v2.44h-1.194v-2.44h-.955v5.844h.955v-2.489h1.195v2.489h.955v-5.844Zm4.204.819a.901.901 0 0 0-.19-.578.836.836 0 0 0-.622-.241H76.37a.836.836 0 0 0-.621.24.791.791 0 0 0-.24.578v4.271c0 .225.08.402.24.53.159.16.366.241.62.241h1.434c.255 0 .462-.08.621-.24.128-.13.191-.306.191-.53v-4.272Zm-2.102.096h1.099v4.062h-1.099v-4.062Zm5.685-.915h-2.802v5.844h2.802v-.867h-1.8v-1.766h1.386v-.867H80.4v-1.445h1.8v-.9Zm4.73 0h-1.48a.779.779 0 0 0-.574.24.791.791 0 0 0-.24.578v4.271c0 .225.08.402.24.53a.78.78 0 0 0 .573.241h1.481c.255 0 .462-.08.621-.24a.643.643 0 0 0 .24-.53v-4.272a.791.791 0 0 0-.24-.577.836.836 0 0 0-.62-.241Zm-1.29.915h1.147v4.062h-1.147v-4.062Z" fill="#fff"/></svg>