<svg width="77" height="64" fill="none" xmlns="http://www.w3.org/2000/svg"><path d="M12.798 12.043a1 1 0 0 0-1-1H8.11a1 1 0 0 0-1 1v3.689a1 1 0 0 0 1 1h3.69a1 1 0 0 0 1-1v-3.689Zm0 17.152a1 1 0 0 0-1-1H8.11a1 1 0 0 0-1 1v3.69a1 1 0 0 0 1 1h3.69a1 1 0 0 0 1-1v-3.69Z" stroke="#0079FF" stroke-width="1.5" stroke-miterlimit="10"/><path d="M17 12.047h19.075M17 15.563h12.382M17 29.45h19.075M17 33.047h12.382" stroke="#0079FF" stroke-width="1.5" stroke-miterlimit="10" stroke-linecap="round"/><path d="m41.299 18.13-2.276 2.999 33.193 25.18 2.276-2.998L41.299 18.13Zm-.135-.226-4.602-1.088 2.26 4.35M72.367 46.35s1.255 1.506 2.51-.251c1.255-1.673-.335-2.677-.335-2.677" stroke="#0079FF" stroke-width="1.5" stroke-miterlimit="10"/><path fill-rule="evenodd" clip-rule="evenodd" d="M3 1h46a2 2 0 0 1 2 2v19c.34 0 .675.028 1 .083V3a3 3 0 0 0-3-3H3a3 3 0 0 0-3 3v58a3 3 0 0 0 3 3h46a3 3 0 0 0 3-3V33.917c-.325.055-.66.083-1 .083v27a2 2 0 0 1-2 2H3a2 2 0 0 1-2-2V3a2 2 0 0 1 2-2Z" fill="#100F0F"/></svg>