<svg width="66" height="67" fill="none" xmlns="http://www.w3.org/2000/svg"><path d="M9.753 46.861H5.27A4.244 4.244 0 0 1 1 42.59V32.227c0-2.591 2.1-4.692 4.691-4.692h4.132l-.07 19.326Zm49.299.002C56.39 56.946 48.548 63.178 41.406 63.248" stroke="#2E363F" stroke-width="1.5" stroke-miterlimit="10"/><path d="M6.883 27.537c.77-5.742 3.01-13.444 9.383-18.346M59.82 27.537c-.77-5.742-3.01-13.444-9.383-18.346" stroke="#2E363F" stroke-width="1.5" stroke-miterlimit="10"/><path d="m37.273 66.188-3.501-.07c-1.68 0-3.011-1.4-2.941-3.08 0-1.681 1.4-3.012 3.08-2.942l3.502.07c1.68 0 4.061 1.4 4.061 3.081-.14 1.68-2.59 2.941-4.201 2.941ZM22.99 10.313s4.83-2.73 10.572-2.73c5.812 0 10.364 3.57 10.364 3.57s3.29 2.1 5.251.28c1.96-1.82 1.26-4.691-.98-6.162C45.957 3.801 41.195 1 33.772 1 26.35 1 20.678 2.89 18.017 5.061c-1.89 1.54-2.1 3.151-.84 5.042 1.19 1.89 3.011 1.75 5.812.21Z" stroke="#0079FF" stroke-width="1.5" stroke-miterlimit="10"/><path d="M9.893 27.54h3.501v19.325H8.633m47.539 0h4.551a4.244 4.244 0 0 0 4.272-4.271V32.23c0-2.59-2.101-4.69-4.692-4.69h-4.131v19.325Z" stroke="#2E363F" stroke-width="1.5" stroke-miterlimit="10"/><path d="M56.11 27.54h-3.57v19.325h4.83" stroke="#2E363F" stroke-width="1.5" stroke-miterlimit="10"/></svg>